<?xml version="1.0" standalone="no"?>
<!DOCTYPE svg PUBLIC "-//W3C//DTD SVG 20010904//EN"
 "http://www.w3.org/TR/2001/REC-SVG-20010904/DTD/svg10.dtd">
<svg version="1.0" xmlns="http://www.w3.org/2000/svg"
 width="245.000000pt" height="245.000000pt" viewBox="0 0 245.000000 245.000000"
 preserveAspectRatio="xMidYMid meet">
<metadata>
Created by potrace 1.14, written by Peter Selinger 2001-2017
</metadata>
<g transform="translate(0.000000,245.000000) scale(0.100000,-0.100000)"
fill="#000000" stroke="none">
<path d="M163 1692 l-52 -3 0 -465 0 -464 57 0 57 0 0 168 0 167 155 5 c178 7
218 19 286 89 63 63 90 170 72 275 -22 118 -116 206 -240 222 -51 6 -260 10
-335 6z m374 -123 c72 -36 104 -117 89 -224 -9 -57 -51 -108 -109 -130 -32
-12 -71 -15 -167 -13 l-125 3 0 193 0 193 137 -2 c112 -1 144 -4 175 -20z"/>
<path d="M1360 1690 c-4 -3 -17 -43 -29 -90 -11 -47 -37 -146 -57 -220 -19
-74 -37 -142 -39 -150 -15 -69 -79 -299 -83 -296 -4 5 -66 240 -154 589 l-42
167 -59 0 c-51 0 -58 -2 -53 -17 7 -22 96 -349 102 -372 2 -9 36 -134 76 -279
l72 -263 60 3 c59 3 60 3 68 38 5 19 15 58 23 85 8 28 35 124 60 215 92 331
108 385 114 393 4 4 13 -16 20 -45 17 -70 68 -254 82 -296 6 -18 12 -42 15
-55 2 -12 24 -92 48 -177 l43 -155 60 -3 59 -3 126 463 c69 255 122 465 118
468 -4 3 -31 3 -58 2 l-51 -4 -15 -66 c-30 -129 -166 -657 -174 -676 -8 -19
-48 124 -169 596 l-37 146 -59 4 c-33 2 -62 1 -67 -2z"/>
<path d="M2156 997 c-38 -13 -67 -43 -82 -86 -16 -47 -3 -88 41 -128 61 -57
152 -40 192 36 23 43 21 80 -7 125 -29 49 -91 71 -144 53z"/>
</g>
</svg>
