<svg width="75" height="75" viewBox="0 0 75 75" fill="none" xmlns="http://www.w3.org/2000/svg">
<path d="M23.0469 52.4406L26.9531 47.5594L14.3781 37.5L26.9531 27.4406L23.0469 22.5594L7.42188 35.0594C7.05577 35.3521 6.76021 35.7235 6.5571 36.146C6.354 36.5684 6.24854 37.0312 6.24854 37.5C6.24854 37.9687 6.354 38.4315 6.5571 38.854C6.76021 39.2765 7.05577 39.6478 7.42188 39.9406L23.0469 52.4406ZM51.9531 22.5594L48.0469 27.4406L60.6219 37.5L48.0469 47.5594L51.9531 52.4406L67.5781 39.9406C67.9442 39.6478 68.2398 39.2765 68.4429 38.854C68.646 38.4315 68.7515 37.9687 68.7515 37.5C68.7515 37.0312 68.646 36.5684 68.4429 36.146C68.2398 35.7235 67.9442 35.3521 67.5781 35.0594L51.9531 22.5594ZM46.8 10.05L34.3 66.3L28.1969 64.9437L40.6969 8.69373L46.8 10.05Z" fill="#00C4F0"/>
</svg>
