<svg width="154" height="48" viewBox="0 0 154 48" fill="none" xmlns="http://www.w3.org/2000/svg">
<path d="M68.918 26.0547C68.918 26.6562 68.8398 27.1992 68.6836 27.6836C68.5352 28.1602 68.3359 28.582 68.0859 28.9492C67.8359 29.3164 67.543 29.6289 67.207 29.8867C66.8711 30.1445 66.5234 30.3555 66.1641 30.5195C65.8047 30.6836 65.4375 30.8047 65.0625 30.8828C64.6953 30.9609 64.3477 31 64.0195 31H52.2656V27.9531H64.0195C64.6055 27.9531 65.0586 27.7812 65.3789 27.4375C65.707 27.0938 65.8711 26.6328 65.8711 26.0547C65.8711 25.7734 65.8281 25.5156 65.7422 25.2812C65.6562 25.0469 65.5312 24.8438 65.3672 24.6719C65.2109 24.5 65.0156 24.3672 64.7812 24.2734C64.5547 24.1797 64.3008 24.1328 64.0195 24.1328H57.0117C56.5195 24.1328 55.9883 24.0469 55.418 23.875C54.8477 23.6953 54.3164 23.4102 53.8242 23.0195C53.3398 22.6289 52.9336 22.1172 52.6055 21.4844C52.2852 20.8516 52.125 20.0781 52.125 19.1641C52.125 18.25 52.2852 17.4805 52.6055 16.8555C52.9336 16.2227 53.3398 15.7109 53.8242 15.3203C54.3164 14.9219 54.8477 14.6367 55.418 14.4648C55.9883 14.2852 56.5195 14.1953 57.0117 14.1953H67.3828V17.2422H57.0117C56.4336 17.2422 55.9805 17.418 55.6523 17.7695C55.332 18.1211 55.1719 18.5859 55.1719 19.1641C55.1719 19.75 55.332 20.2148 55.6523 20.5586C55.9805 20.8945 56.4336 21.0625 57.0117 21.0625H64.0195H64.043C64.3711 21.0703 64.7188 21.1172 65.0859 21.2031C65.4531 21.2812 65.8164 21.4062 66.1758 21.5781C66.543 21.75 66.8906 21.9688 67.2188 22.2344C67.5469 22.4922 67.8359 22.8047 68.0859 23.1719C68.3438 23.5391 68.5469 23.9609 68.6953 24.4375C68.8438 24.9141 68.918 25.4531 68.918 26.0547ZM74.5195 21.0625H85.2188V14.1953H88.2656V31H85.2188V24.1328H74.5195V31H71.4727V14.1953H74.5195V21.0625ZM108.328 31H105.281V26.875H94.5703V31H91.5234V22.5977C91.5234 21.3711 91.7344 20.2422 92.1562 19.2109C92.5781 18.1797 93.1641 17.293 93.9141 16.5508C94.6641 15.8086 95.5508 15.2305 96.5742 14.8164C97.5977 14.4023 98.7148 14.1953 99.9258 14.1953H106.793C107.004 14.1953 107.203 14.2344 107.391 14.3125C107.578 14.3906 107.742 14.5 107.883 14.6406C108.023 14.7812 108.133 14.9453 108.211 15.1328C108.289 15.3203 108.328 15.5195 108.328 15.7305V31ZM94.5703 23.8281H105.281V17.2422H99.9258C99.832 17.2422 99.6328 17.2578 99.3281 17.2891C99.0312 17.3125 98.6836 17.3789 98.2852 17.4883C97.8945 17.5977 97.4805 17.7656 97.043 17.9922C96.6055 18.2188 96.2031 18.5312 95.8359 18.9297C95.4688 19.3281 95.1641 19.8281 94.9219 20.4297C94.6875 21.0234 94.5703 21.7461 94.5703 22.5977V23.8281ZM128.648 23.9688C128.648 24.9922 128.469 25.9336 128.109 26.793C127.758 27.6523 127.27 28.3945 126.645 29.0195C126.02 29.6367 125.277 30.1211 124.418 30.4727C123.559 30.8242 122.625 31 121.617 31H113.391C113.172 31 112.969 30.9609 112.781 30.8828C112.594 30.8047 112.43 30.6992 112.289 30.5664C112.156 30.4258 112.051 30.2617 111.973 30.0742C111.895 29.8867 111.855 29.6836 111.855 29.4648V15.7305C111.855 15.5195 111.895 15.3203 111.973 15.1328C112.051 14.9453 112.156 14.7812 112.289 14.6406C112.43 14.5 112.594 14.3906 112.781 14.3125C112.969 14.2344 113.172 14.1953 113.391 14.1953H121.617C122.625 14.1953 123.559 14.3711 124.418 14.7227C125.277 15.0742 126.02 15.5625 126.645 16.1875C127.27 16.8047 127.758 17.5469 128.109 18.4141C128.469 19.2734 128.648 20.2109 128.648 21.2266V23.9688ZM125.602 21.2266C125.602 20.6328 125.504 20.0898 125.309 19.5977C125.121 19.1055 124.852 18.6875 124.5 18.3438C124.148 17.9922 123.727 17.7227 123.234 17.5352C122.75 17.3398 122.211 17.2422 121.617 17.2422H114.902V27.9531H121.617C122.211 27.9531 122.75 27.8594 123.234 27.6719C123.727 27.4766 124.148 27.207 124.5 26.8633C124.852 26.5117 125.121 26.0938 125.309 25.6094C125.504 25.1172 125.602 24.5703 125.602 23.9688V21.2266ZM145.453 24.1328H135.832V21.0625H145.453V24.1328ZM146.824 31H135.832C135.41 31 134.949 30.9258 134.449 30.7773C133.949 30.6289 133.484 30.3867 133.055 30.0508C132.633 29.707 132.277 29.2656 131.988 28.7266C131.707 28.1797 131.566 27.5117 131.566 26.7227V15.7305C131.566 15.5195 131.605 15.3203 131.684 15.1328C131.762 14.9453 131.867 14.7812 132 14.6406C132.141 14.5 132.305 14.3906 132.492 14.3125C132.68 14.2344 132.883 14.1953 133.102 14.1953H146.824V17.2422H134.613V26.7227C134.613 27.1211 134.719 27.4258 134.93 27.6367C135.141 27.8477 135.449 27.9531 135.855 27.9531H146.824V31Z" fill="#00C1EC"/>
<path d="M12 16.2857L22.2857 24.5934L12 31.7143" stroke="#00C1EC" stroke-width="5" stroke-linecap="round" stroke-linejoin="round"/>
<path d="M27.4285 32.5714H36.857" stroke="#00C1EC" stroke-width="5" stroke-linecap="round" stroke-linejoin="round"/>
<path d="M26.3759 2.75232L43.2407 11.6393C44.7181 12.4178 45.6429 13.9504 45.6429 15.6204V31.7368C45.6429 33.3659 44.7623 34.8679 43.3406 35.6635L26.4714 45.1051C25.1454 45.8472 23.5346 45.8701 22.1881 45.1659L3.91453 35.609C2.43029 34.8327 1.5 33.2963 1.5 31.6214V15.7335C1.5 14.0192 2.4741 12.4537 4.01212 11.6964L22.2902 2.69629C23.5825 2.05992 25.1015 2.08075 26.3759 2.75232Z" stroke="#00C1EC" stroke-width="3"/>
</svg>
