<svg width="83" height="83" viewBox="0 0 83 83" fill="none" xmlns="http://www.w3.org/2000/svg">
<circle cx="41.5" cy="41.5" r="41.5" fill="url(#paint0_linear_246_9)"/>
<path d="M22.3915 52V27.16H34.4875C38.5195 27.16 40.5355 29.176 40.5355 33.208V38.032C40.5355 42.064 38.5195 44.08 34.4875 44.08H27.5755V52H22.3915ZM27.5755 39.4H34.2715C34.9915 39.4 35.3515 39.04 35.3515 38.32V32.92C35.3515 32.2 34.9915 31.84 34.2715 31.84H27.5755V39.4ZM44.2685 50.128V47.32H55.4285C56.1485 47.32 56.5085 46.96 56.5085 46.24V43.648C56.5085 42.952 56.2085 42.556 55.6085 42.46L48.5885 41.02C45.7085 40.444 44.2685 38.512 44.2685 35.224V33.208C44.2685 29.176 46.2845 27.16 50.3165 27.16H58.5605L60.9725 29.032V31.84H50.5325C49.8125 31.84 49.4525 32.2 49.4525 32.92V35.26C49.4525 35.932 49.7525 36.328 50.3525 36.448L57.3725 37.852C60.2525 38.428 61.6925 40.36 61.6925 43.648V45.952C61.6925 49.984 59.6765 52 55.6445 52H46.6805L44.2685 50.128Z" fill="#00C1EC"/>
<defs>
<linearGradient id="paint0_linear_246_9" x1="0" y1="0" x2="89.2299" y2="76.6892" gradientUnits="userSpaceOnUse">
<stop stop-color="#414141"/>
<stop offset="1" stop-color="#2D2D2D"/>
</linearGradient>
</defs>
</svg>
