<?xml version="1.0" standalone="no"?>
<!DOCTYPE svg PUBLIC "-//W3C//DTD SVG 20010904//EN"
 "http://www.w3.org/TR/2001/REC-SVG-20010904/DTD/svg10.dtd">
<svg version="1.0" xmlns="http://www.w3.org/2000/svg"
 width="2464.000000pt" height="2464.000000pt" viewBox="0 0 2464.000000 2464.000000"
 preserveAspectRatio="xMidYMid meet">
<metadata>
Created by potrace 1.14, written by Peter Selinger 2001-2017
</metadata>
<g transform="translate(0.000000,2464.000000) scale(0.100000,-0.100000)"
fill="#000000" stroke="none">
<path d="M3803 16039 c-21 -4 -60 -9 -87 -12 -48 -6 -172 -43 -191 -57 -5 -4
-25 -11 -42 -15 -18 -3 -33 -11 -33 -16 0 -5 -4 -9 -10 -9 -9 0 -104 -44 -145
-68 -11 -6 -164 -82 -340 -168 -176 -86 -466 -229 -645 -317 -179 -89 -327
-161 -330 -162 -3 -1 -166 -81 -363 -178 -197 -97 -362 -177 -367 -177 -6 0
-10 -4 -10 -10 0 -5 -6 -10 -12 -10 -7 0 -76 -32 -153 -70 -77 -39 -145 -70
-152 -70 -6 0 -13 -3 -15 -7 -3 -9 -340 -176 -375 -187 -13 -4 -23 -12 -23
-17 0 -5 -5 -9 -10 -9 -12 0 -100 -56 -144 -91 -137 -111 -258 -288 -308 -447
-48 -158 -47 -119 -47 -1567 0 -764 4 -1382 9 -1410 16 -86 21 -109 27 -130 4
-11 7 -23 8 -27 0 -3 3 -10 7 -14 5 -4 8 -14 8 -22 0 -56 162 -303 243 -371
16 -14 34 -30 41 -36 15 -16 123 -89 166 -112 19 -11 123 -65 230 -121 107
-55 224 -116 260 -136 66 -35 156 -82 337 -175 56 -28 105 -56 108 -62 4 -5
11 -7 16 -4 5 4 9 1 9 -6 0 -7 3 -9 7 -6 3 4 11 3 17 -2 11 -9 113 -63 256
-136 41 -21 81 -43 89 -49 7 -5 20 -11 28 -12 7 -1 19 -7 26 -12 7 -6 71 -40
142 -77 72 -37 166 -86 210 -110 95 -50 311 -163 413 -216 40 -20 78 -42 86
-48 7 -6 16 -8 19 -4 4 3 7 0 7 -7 0 -7 3 -10 7 -7 3 4 11 3 17 -2 6 -5 61
-35 121 -66 61 -32 125 -66 143 -77 17 -11 32 -17 32 -13 0 3 12 -2 27 -13 16
-10 51 -30 78 -43 28 -13 52 -26 55 -30 3 -3 65 -35 138 -72 125 -63 245 -106
337 -123 47 -8 266 -13 279 -6 5 3 24 6 43 8 61 6 202 54 286 98 45 24 102 55
127 67 25 13 47 27 50 30 3 3 37 23 77 45 91 49 430 239 503 281 30 17 76 42
103 55 26 13 47 26 47 30 0 5 4 8 9 8 5 0 51 24 103 53 51 28 107 59 123 67
17 8 32 18 35 21 3 3 39 24 80 46 67 36 128 70 255 142 22 13 45 27 51 32 6 5
14 6 17 2 4 -3 7 -1 7 5 0 7 4 12 9 12 5 0 56 26 113 58 57 33 130 74 163 92
33 18 76 42 95 53 19 11 60 34 90 50 30 16 60 33 65 37 6 4 41 24 78 44 37 20
84 46 105 58 168 95 264 148 272 148 6 0 10 5 10 10 0 6 4 10 10 10 12 0 192
104 221 127 113 92 172 155 234 249 36 54 95 174 95 193 0 6 5 11 11 11 5 0 8
4 5 8 -3 5 2 28 10 51 8 24 16 55 18 70 2 14 7 51 12 81 9 67 10 2709 1 2797
-7 62 -26 145 -46 196 -6 15 -9 27 -7 27 3 0 -11 32 -30 70 -19 39 -34 73 -34
76 0 3 -4 10 -10 17 -24 29 -80 108 -80 112 0 12 -135 137 -191 177 -35 25
-126 78 -202 117 -76 40 -154 81 -172 91 -18 10 -94 50 -167 89 -73 38 -169
88 -213 111 -44 23 -86 47 -92 52 -7 6 -13 7 -13 3 0 -4 -7 -1 -16 6 -16 13
-126 72 -274 146 -41 21 -77 40 -80 43 -3 3 -32 19 -65 36 -33 17 -103 53
-155 81 -52 27 -142 74 -200 104 -58 30 -107 56 -110 59 -3 3 -27 16 -55 29
-27 14 -58 31 -67 39 -10 9 -18 12 -18 7 0 -4 -6 -3 -12 3 -12 9 -135 75 -298
158 -41 22 -77 41 -80 44 -3 3 -39 22 -80 43 -41 20 -142 73 -225 117 -231
124 -303 157 -397 184 -112 32 -266 48 -345 35z m212 -494 c17 -4 111 -49 210
-100 99 -52 209 -108 245 -127 36 -18 67 -36 68 -40 2 -5 12 -8 22 -8 10 0 20
-3 22 -7 2 -5 37 -25 78 -47 41 -21 111 -58 155 -81 296 -157 506 -267 543
-284 17 -8 32 -19 32 -23 0 -4 7 -8 16 -8 9 0 38 -13 63 -28 25 -16 93 -52
151 -82 58 -29 119 -61 135 -70 17 -9 107 -57 200 -105 94 -49 172 -91 175
-94 3 -3 52 -30 110 -59 184 -92 265 -136 272 -147 4 -5 8 -6 8 -1 0 5 6 4 13
-1 6 -6 71 -41 142 -78 72 -38 148 -79 169 -93 95 -59 180 -181 207 -297 8
-37 11 -405 12 -1385 0 -734 -3 -1352 -6 -1372 -6 -34 -13 -55 -47 -145 -6
-18 -16 -33 -21 -33 -5 0 -9 -6 -9 -13 0 -18 -100 -116 -147 -144 -21 -12 -76
-43 -123 -69 -92 -51 -109 -61 -217 -123 -40 -22 -75 -41 -77 -41 -3 0 -30
-16 -60 -35 -30 -19 -58 -35 -62 -35 -3 0 -40 -20 -81 -45 -40 -25 -80 -45
-88 -45 -7 0 -15 -3 -17 -8 -4 -9 -435 -252 -448 -252 -6 0 -10 -4 -10 -10 0
-5 -9 -10 -20 -10 -11 0 -20 -4 -20 -8 0 -5 -22 -19 -50 -32 -27 -13 -50 -27
-50 -32 0 -4 -9 -8 -20 -8 -11 0 -20 -3 -20 -8 0 -4 -15 -13 -32 -21 -18 -8
-35 -17 -38 -20 -3 -3 -23 -16 -45 -27 -99 -52 -180 -98 -185 -103 -3 -3 -23
-15 -45 -26 -67 -35 -150 -80 -155 -85 -5 -5 -9 -8 -110 -62 -36 -20 -129 -72
-208 -117 -78 -44 -146 -81 -150 -81 -4 0 -18 -8 -32 -17 -46 -34 -403 -227
-437 -237 -99 -30 -235 -29 -308 3 -53 23 -249 123 -510 261 -38 20 -113 59
-165 85 -52 27 -97 51 -100 54 -3 4 -57 32 -120 64 -63 32 -164 84 -225 116
-97 50 -316 165 -515 269 -68 36 -123 64 -385 202 -88 46 -187 97 -220 114
-33 17 -63 35 -67 41 -4 5 -8 6 -8 1 0 -5 -6 -4 -12 1 -12 10 -65 38 -373 198
-382 199 -365 188 -444 285 -11 14 -25 30 -31 37 -5 7 -10 18 -10 24 0 7 -6
20 -14 28 -7 9 -20 43 -29 76 -12 49 -15 151 -16 565 0 278 -1 507 -2 510 -1
3 -1 9 0 13 2 10 2 927 1 942 -1 6 -1 44 0 85 0 41 2 208 4 370 3 324 4 327
72 435 36 57 97 125 113 125 6 0 11 4 11 9 0 5 30 24 68 42 37 19 70 38 73 42
3 5 8 7 10 6 2 -2 102 45 222 104 120 59 222 107 226 107 4 0 13 6 19 13 7 6
16 12 20 13 7 0 473 227 502 244 36 21 203 100 211 100 5 0 9 5 9 10 0 6 5 10
11 10 6 0 136 61 288 136 152 75 285 140 296 145 11 5 27 13 35 18 8 5 112 57
230 114 118 58 315 155 438 215 122 61 222 107 222 104 0 -4 4 -2 8 4 8 12
133 72 177 85 17 5 50 12 75 15 25 3 46 7 47 8 4 4 115 -11 148 -19z"/>
<path d="M1887 13954 c-1 -1 -18 -4 -37 -7 -113 -17 -224 -98 -282 -206 -30
-55 -40 -91 -43 -149 -1 -23 -4 -44 -7 -47 -5 -5 7 -69 20 -105 3 -8 6 -21 8
-28 4 -23 55 -102 82 -130 15 -15 49 -45 76 -67 27 -22 57 -47 66 -55 10 -8
28 -23 39 -32 12 -10 23 -18 26 -18 2 0 16 -11 31 -25 15 -14 41 -36 57 -48
16 -12 37 -29 46 -37 9 -9 35 -29 56 -45 22 -17 42 -32 45 -35 3 -4 64 -53
135 -110 72 -57 137 -109 145 -117 8 -7 33 -28 56 -46 51 -40 117 -94 143
-115 11 -10 35 -28 53 -42 18 -14 39 -32 48 -40 9 -8 40 -34 70 -57 30 -23 67
-53 81 -65 15 -13 40 -34 58 -47 17 -13 31 -27 31 -31 0 -4 -33 -29 -72 -56
-40 -27 -78 -53 -85 -59 -7 -5 -19 -16 -27 -22 -8 -7 -18 -13 -22 -13 -3 0
-16 -8 -29 -17 -12 -10 -31 -24 -41 -31 -63 -42 -251 -172 -259 -179 -5 -4
-44 -30 -85 -57 -41 -28 -79 -55 -85 -61 -5 -6 -28 -22 -50 -35 -22 -13 -42
-27 -45 -30 -3 -3 -39 -28 -80 -55 -41 -28 -77 -52 -80 -56 -3 -3 -61 -44
-130 -91 -145 -100 -187 -136 -222 -198 -34 -57 -61 -153 -56 -191 3 -17 2
-32 -2 -34 -11 -7 14 -95 44 -156 78 -163 254 -248 442 -215 36 7 174 76 174
87 0 5 5 9 11 9 6 0 28 13 48 28 20 16 91 67 159 113 68 46 133 91 145 99 176
122 395 274 440 305 32 22 65 45 75 50 9 6 19 13 22 16 3 3 57 41 120 84 63
43 117 81 120 84 3 3 13 11 22 16 10 6 43 28 75 50 100 69 208 144 218 153 6
4 28 19 50 32 22 13 42 27 45 30 3 4 26 20 51 37 142 97 208 256 175 422 -4
19 -11 42 -17 52 -5 11 -7 19 -4 19 2 0 -9 22 -25 49 -25 40 -104 122 -155
159 -24 18 -111 88 -123 100 -8 7 -30 25 -50 40 -21 15 -39 29 -42 32 -3 3
-27 24 -55 45 -27 22 -52 42 -55 45 -3 3 -50 41 -105 84 -55 44 -102 82 -105
86 -3 3 -36 29 -74 59 -88 69 -104 81 -132 109 -13 12 -27 22 -31 22 -4 0 -28
19 -53 41 -73 65 -84 74 -110 91 -14 8 -37 26 -51 39 -14 13 -46 40 -70 59
-57 45 -73 58 -124 100 -23 19 -57 46 -75 60 -30 24 -43 34 -87 70 -10 8 -40
33 -68 55 -27 22 -52 42 -55 45 -3 3 -27 24 -55 45 -27 22 -52 42 -55 45 -43
43 -164 90 -238 94 -29 1 -54 1 -55 0z"/>
<path d="M4315 11343 c-11 -2 -27 -7 -35 -10 -8 -4 -18 -7 -22 -8 -5 -2 -10
-4 -13 -5 -3 -1 -8 -3 -12 -5 -39 -11 -59 -25 -123 -85 -84 -80 -123 -178
-119 -299 2 -57 31 -165 49 -181 3 -3 16 -21 29 -40 13 -19 41 -48 62 -65 22
-16 45 -35 52 -40 6 -6 38 -21 70 -33 l58 -22 828 0 c896 0 864 -2 961 53 75
43 175 176 186 247 10 63 11 123 3 165 -12 65 -11 63 -37 115 -47 98 -160 185
-268 208 -49 11 -1620 15 -1669 5z"/>
<path d="M9049 13885 c-3 -2 -25 -6 -49 -9 -54 -6 -76 -11 -115 -26 -16 -7
-41 -14 -55 -16 -64 -13 -243 -134 -300 -204 -14 -17 -30 -36 -35 -43 -23 -27
-75 -115 -96 -161 -83 -189 -73 -540 21 -706 14 -25 31 -57 38 -71 14 -25 55
-77 109 -133 34 -34 151 -113 213 -143 39 -18 126 -45 195 -59 60 -12 154 -14
726 -17 616 -2 625 -2 669 -24 116 -55 175 -164 166 -308 -9 -143 -87 -242
-215 -270 -19 -4 -467 -7 -996 -7 l-962 -1 1 -240 1 -241 28 -7 c16 -4 27 -3
27 2 0 6 5 7 11 4 12 -8 167 -10 175 -3 3 3 21 2 40 -2 19 -4 36 -4 39 1 3 4
16 4 28 0 12 -5 32 -5 45 0 12 5 22 5 22 1 0 -6 138 -8 148 -2 7 5 83 2 88 -3
3 -3 17 -2 30 3 14 6 26 6 29 0 3 -6 15 -6 30 0 15 6 27 6 30 0 3 -6 15 -6 30
0 15 6 27 6 30 0 3 -6 15 -6 30 0 15 6 27 6 30 0 3 -6 15 -6 30 0 15 6 27 6
30 0 3 -6 15 -6 30 0 15 6 27 6 30 0 3 -6 15 -6 30 0 15 6 27 6 30 0 3 -6 15
-6 30 0 15 6 27 6 30 0 3 -6 15 -6 30 0 15 6 27 6 30 0 3 -6 15 -6 30 0 15 6
27 6 30 0 3 -5 15 -6 29 0 12 4 29 4 36 0 8 -5 21 -5 30 0 9 5 22 5 30 0 8 -5
21 -5 30 0 9 5 22 5 30 0 8 -5 21 -5 30 0 9 5 22 5 30 0 8 -5 21 -5 31 0 9 5
19 7 22 4 8 -8 237 -10 237 -2 0 4 13 3 29 -2 16 -4 31 -7 33 -5 2 2 37 6 78
9 121 10 186 26 293 72 166 74 302 206 369 359 25 55 65 190 67 225 16 228 -5
364 -81 515 -74 149 -205 268 -376 343 -40 18 -81 32 -92 32 -11 0 -20 5 -20
10 0 6 -3 9 -7 8 -5 -1 -31 2 -58 6 -28 4 -64 9 -80 11 -17 2 -302 4 -635 5
-445 0 -616 4 -645 13 -137 41 -204 153 -193 321 8 116 57 201 144 244 63 32
86 34 389 32 11 0 334 0 718 1 l697 1 1 62 c0 56 0 352 -1 404 l0 22 -864 0
c-474 0 -865 -2 -867 -5z"/>
<path d="M11438 13883 c-4 -7 -3 -2654 1 -2677 0 -4 8 -6 16 -3 8 4 17 2 20
-3 3 -5 15 -6 28 -1 12 5 32 5 44 0 13 -5 25 -4 28 1 3 6 15 6 30 0 15 -6 27
-6 30 0 3 6 15 6 30 0 15 -6 27 -6 30 0 3 5 15 6 28 1 12 -5 34 -5 49 0 16 4
28 4 28 -1 0 -5 13 -5 30 0 17 5 30 5 30 1 0 -10 53 -1 60 10 3 4 5 250 5 547
l-1 540 856 -1 855 -2 0 -545 c0 -503 1 -545 17 -545 9 0 20 -3 23 -7 4 -4 18
-3 31 2 14 6 26 6 29 0 3 -6 15 -6 30 0 15 6 25 6 25 0 0 -5 12 -5 30 0 17 5
32 5 35 0 3 -5 16 -5 30 0 15 6 25 6 25 0 0 -5 12 -5 30 0 17 5 30 5 30 0 0
-5 13 -5 30 0 17 5 30 5 30 1 0 -4 21 -4 47 -1 l46 5 1 1320 c1 726 -1 1330
-3 1343 l-3 22 -242 -2 -241 -3 -1 -535 c-1 -294 -2 -541 -3 -547 -1 -10 -179
-13 -854 -13 l-853 0 0 548 1 547 -242 3 c-133 1 -243 -1 -245 -5z"/>
<path d="M15805 13880 c-22 -4 -58 -11 -80 -14 -22 -3 -58 -11 -80 -16 -22 -6
-50 -13 -63 -16 -32 -6 -137 -46 -197 -75 -27 -12 -53 -22 -57 -21 -5 1 -8 -2
-8 -6 0 -5 -12 -14 -27 -21 -25 -11 -133 -80 -143 -91 -3 -3 -32 -27 -65 -55
-33 -27 -70 -61 -81 -75 -12 -14 -36 -41 -53 -60 -48 -54 -115 -157 -156 -240
-20 -41 -41 -83 -47 -94 -15 -29 -63 -182 -74 -241 -2 -11 -6 -33 -9 -50 -3
-16 -8 -43 -11 -60 -4 -16 -7 -369 -8 -782 -2 -740 -2 -753 17 -759 24 -8 171
-9 183 -2 5 3 18 2 29 -2 11 -4 30 -4 41 1 12 4 25 5 28 2 8 -8 146 -9 146 -1
0 3 9 4 20 1 23 -6 22 -24 21 425 l-1 233 84 -2 c46 -1 89 2 95 5 6 4 11 4 11
-1 0 -4 343 -8 762 -8 l763 0 1 -320 c1 -176 2 -323 3 -326 2 -10 51 -17 51
-8 0 4 14 4 30 -1 17 -5 30 -5 30 0 0 5 13 5 30 0 17 -5 30 -5 30 0 0 5 13 5
30 0 17 -5 30 -5 30 0 0 5 13 5 30 0 17 -5 30 -5 30 0 0 5 13 5 30 0 17 -5 30
-5 30 0 0 5 13 5 30 0 16 -5 32 -5 35 0 3 5 19 5 35 0 17 -5 30 -6 31 -2 5 42
0 2468 -5 2497 -12 67 -63 131 -130 165 l-59 30 -646 -2 c-355 0 -664 -4 -686
-8z m590 -480 c11 0 110 0 220 0 110 1 207 1 215 1 13 -1 15 -66 15 -526 l0
-525 -30 -1 c-35 -1 -1666 0 -1678 0 -8 1 -2 322 8 386 7 47 42 158 61 197 8
15 13 29 12 30 -3 5 74 123 92 140 10 10 24 26 32 36 24 33 142 122 197 148
119 57 161 72 251 90 14 2 31 7 37 9 7 2 52 7 100 11 49 3 89 7 90 8 1 1 335
-2 378 -4z"/>
<path d="M18060 13874 c-25 -9 -56 -25 -70 -36 -33 -26 -90 -116 -84 -133 3
-7 2 -15 -3 -18 -6 -4 -10 -2272 -3 -2272 1 0 3 -12 5 -26 13 -95 105 -177
208 -184 21 -1 40 -5 43 -8 3 -3 17 -2 30 3 14 6 26 6 29 0 3 -6 15 -6 30 0
15 6 27 6 30 0 3 -6 15 -6 30 0 15 6 27 6 30 0 3 -6 15 -6 30 0 15 6 27 6 30
0 3 -6 15 -6 30 0 15 6 27 6 30 0 3 -6 15 -6 30 0 15 6 27 6 30 0 3 -6 15 -6
30 0 15 6 27 6 30 0 3 -5 15 -6 29 0 12 4 29 4 36 0 8 -5 21 -5 30 0 9 5 22 5
30 0 8 -5 21 -5 30 0 9 5 22 5 30 0 8 -5 21 -5 30 0 9 5 22 5 30 0 8 -5 21 -5
31 0 9 5 19 7 22 4 8 -9 237 -10 237 -1 0 5 5 5 11 2 10 -7 102 -10 124 -5 6
1 13 1 18 0 18 -4 138 -2 143 3 3 3 16 2 29 -3 13 -5 25 -7 28 -4 3 3 42 7 88
9 94 5 110 8 224 36 109 28 233 84 342 156 72 47 185 154 230 216 21 29 40 54
43 57 4 3 17 25 31 50 13 25 28 48 32 51 5 3 9 9 8 12 0 4 10 30 23 59 29 65
72 200 80 250 27 172 27 785 0 898 -3 14 -10 44 -14 67 -5 23 -15 56 -23 75
-8 18 -14 35 -15 38 -5 31 -82 193 -94 198 -4 2 -8 8 -8 13 0 16 -81 120 -140
180 -54 55 -161 140 -210 168 -105 60 -271 123 -353 135 -27 4 -59 10 -70 14
-12 3 -362 7 -777 9 -671 2 -760 1 -800 -13z m1215 -474 c11 0 65 0 120 0 163
2 215 -6 335 -53 185 -70 331 -260 357 -463 8 -67 9 -617 0 -679 -9 -67 -40
-156 -77 -222 -42 -74 -59 -94 -144 -166 -58 -50 -198 -109 -291 -123 -23 -3
-1110 -8 -1175 -5 -13 1 -15 102 -15 854 l0 852 35 5 c26 4 739 4 855 0z"/>
<path d="M21218 13876 c-21 -8 -49 -21 -63 -30 -36 -23 -83 -92 -95 -138 -13
-45 -8 -1933 4 -1988 5 -19 9 -39 11 -45 9 -41 64 -154 94 -195 58 -79 214
-210 251 -210 5 0 29 -9 53 -19 66 -30 134 -43 241 -47 54 -2 101 -5 103 -8 3
-3 16 -1 29 4 14 6 26 6 29 0 3 -6 15 -6 30 0 15 6 27 6 30 0 3 -6 15 -6 30 0
15 6 27 6 30 0 3 -6 15 -6 30 0 15 6 27 6 30 0 3 -6 15 -6 30 0 15 6 27 6 30
0 3 -6 15 -6 30 0 15 6 27 6 30 0 3 -6 15 -6 30 0 15 6 27 6 30 0 3 -6 15 -6
30 0 15 6 27 6 30 0 3 -6 15 -6 30 0 15 6 27 6 30 0 3 -6 15 -6 30 0 15 6 27
6 30 0 3 -5 15 -6 29 0 12 4 29 4 36 0 8 -5 21 -5 30 0 9 5 22 5 30 0 8 -5 21
-5 30 0 9 5 22 5 30 0 8 -5 21 -5 30 0 9 5 22 5 30 0 8 -5 21 -5 31 0 9 5 19
7 22 4 8 -8 237 -10 237 -2 0 4 12 3 28 -1 15 -4 41 -4 57 -1 17 4 40 3 52 -1
13 -5 25 -4 28 1 4 6 13 7 24 1 9 -5 23 -6 31 -1 7 4 19 6 26 3 7 -3 76 -6
154 -6 l140 -2 1 40 c0 48 0 425 0 441 -1 9 -239 12 -899 12 -936 -1 -950 0
-992 41 -25 24 -50 65 -56 92 -7 33 -8 1569 -1 1576 3 3 356 5 784 4 428 -1
786 -1 796 -1 9 0 96 0 192 1 l175 2 0 41 c1 22 1 131 2 241 l1 200 -1119 2
c-913 2 -1126 0 -1156 -11z"/>
<path d="M21737 12783 c-2 -5 -4 -115 -4 -245 l0 -238 66 0 c467 -3 1465 0
1469 4 3 3 5 114 6 246 l1 240 -767 0 c-422 0 -769 -3 -771 -7z"/>
</g>
</svg>
