<svg width="127" height="39" viewBox="0 0 127 39" fill="none" xmlns="http://www.w3.org/2000/svg">
<path d="M0.648 27.936V2.88H7.56V28.32C7.56 29.28 8.04 29.76 9 29.76H18.408C19.368 29.76 19.848 29.28 19.848 28.32V2.88H26.76V27.936C26.76 33.312 24.072 36 18.696 36H8.712C3.336 36 0.648 33.312 0.648 27.936ZM31.7659 34.608L42.1339 18.96L32.3899 4.272L33.0619 2.88H39.1099L45.9259 13.44L52.7419 2.88H58.7899L59.4619 4.272L49.7179 18.96L60.0859 34.608L59.4139 36H53.3659L45.9259 24.528L38.4859 36H32.4379L31.7659 34.608ZM62.4131 36.768L75.8531 0.0959988L81.4211 2.112L67.9811 38.784L62.4131 36.768ZM86.0074 27.936V2.88H92.9194V28.32C92.9194 29.28 93.3994 29.76 94.3594 29.76H103.767C104.727 29.76 105.207 29.28 105.207 28.32V2.88H112.119V27.936C112.119 33.312 109.431 36 104.055 36H94.0714C88.6954 36 86.0074 33.312 86.0074 27.936ZM119.717 36V2.88H126.629V36H119.717Z" fill="#00C4F0"/>
</svg>
