<svg width="185" height="58" viewBox="0 0 185 58" fill="none" xmlns="http://www.w3.org/2000/svg">
<path d="M0.32 41.24V4.7H10.4V41.8C10.4 43.2 11.1 43.9 12.5 43.9H26.22C27.62 43.9 28.32 43.2 28.32 41.8V4.7H38.4V41.24C38.4 49.08 34.48 53 26.64 53H12.08C4.24 53 0.32 49.08 0.32 41.24ZM45.7002 50.97L60.8202 28.15L46.6102 6.73L47.5902 4.7H56.4102L66.3502 20.1L76.2902 4.7H85.1102L86.0902 6.73L71.8802 28.15L87.0002 50.97L86.0202 53H77.2002L66.3502 36.27L55.5002 53H46.6802L45.7002 50.97ZM90.3941 54.12L109.994 0.639998L118.114 3.58L98.5141 57.06L90.3941 54.12ZM124.802 41.24V4.7H134.882V41.8C134.882 43.2 135.582 43.9 136.982 43.9H150.702C152.102 43.9 152.802 43.2 152.802 41.8V4.7H162.882V41.24C162.882 49.08 158.962 53 151.122 53H136.562C128.722 53 124.802 49.08 124.802 41.24ZM173.963 53V4.7H184.043V53H173.963Z" fill="#00C4F0"/>
</svg>
