<svg width="83" height="83" viewBox="0 0 83 83" fill="none" xmlns="http://www.w3.org/2000/svg">
<circle cx="41.5" cy="41.5" r="41.5" fill="url(#paint0_linear_249_14)"/>
<path d="M20.0661 45.952V27.16H25.2501V46.24C25.2501 46.96 25.6101 47.32 26.3301 47.32H33.3861C34.1061 47.32 34.4661 46.96 34.4661 46.24V27.16H39.6501V45.952C39.6501 49.984 37.6341 52 33.6021 52H26.1141C22.0821 52 20.0661 49.984 20.0661 45.952ZM43.4045 50.956L51.1805 39.22L43.8725 28.204L44.3765 27.16H48.9125L54.0245 35.08L59.1365 27.16H63.6725L64.1765 28.204L56.8685 39.22L64.6445 50.956L64.1405 52H59.6045L54.0245 43.396L48.4445 52H43.9085L43.4045 50.956Z" fill="#00C1EC"/>
<defs>
<linearGradient id="paint0_linear_249_14" x1="0" y1="0" x2="89.2299" y2="76.6892" gradientUnits="userSpaceOnUse">
<stop stop-color="#414141"/>
<stop offset="1" stop-color="#2D2D2D"/>
</linearGradient>
</defs>
</svg>
